<?xml version="1.0" encoding="utf-8"?>
<!-- Generator: Adobe Illustrator 22.0.1, SVG Export Plug-In . SVG Version: 6.00 Build 0)  -->
<svg version="1.1" id="Layer_1" xmlns="http://www.w3.org/2000/svg" xmlns:xlink="http://www.w3.org/1999/xlink" x="0px" y="0px"
	 width="307.8px" height="307.8px" viewBox="0 0 307.8 307.8" style="enable-background:new 0 0 307.8 307.8;" xml:space="preserve"
	>
<style type="text/css">
	.st0{clip-path:url(#SVGID_2_);}
	.st1{clip-path:url(#SVGID_4_);}
	.st2{clip-path:url(#SVGID_2_);fill:#FFFFFF;}
	.st3{clip-path:url(#SVGID_8_);}
	.st4{clip-path:url(#SVGID_12_);fill:#FFFFFF;}
	.st5{clip-path:url(#SVGID_14_);fill:#FFFFFF;}
	.st6{clip-path:url(#SVGID_16_);fill:#FFFFFF;}
	.st7{clip-path:url(#SVGID_18_);fill:#FFFFFF;}
	.st8{clip-path:url(#SVGID_20_);fill:#FFFFFF;}
	.st9{clip-path:url(#SVGID_22_);fill:#FFFFFF;}
	.st10{fill:#FFFFFF;}
	.st11{font-family:'DIN-Bold';}
	.st12{font-size:16.9231px;}
	.st13{clip-path:url(#SVGID_24_);fill:none;stroke:#FFFFFF;}
</style>
<g>
	<defs>
		<rect id="SVGID_17_" width="307.8" height="307.8"/>
	</defs>
	<clipPath id="SVGID_2_">
		<use xlink:href="#SVGID_17_"  style="overflow:visible;"/>
	</clipPath>
	<path class="st2" d="M172.8,214l8.2,0.2c0.8,0,1.7-0.2,2.8-1.5c0,0,5.1-5.5,7.4-10.6c1.6-3.1,1.1-4.2-2.2-4.2l-19.3,0
		c-1,0-1.8,0.6-2.1,1.3l-1.8,4.7c-0.3,0.8-0.1,1.9,0.4,2.4l5.2,7C171.6,213.7,172.2,214,172.8,214"/>
	<path class="st2" d="M143.6,223.7c0.3,0.4,0.9,1,2,1.2c2.3,0.4,5.4,0.8,8,0.8c2.5,0,5.7-0.4,8-0.8c1.1-0.3,1.7-0.9,2-1.2l5.2-6
		c0.5-0.6,0.6-1.8,0.2-2.4l-5.5-7.7c-0.5-0.6-1.5-1-2.4-1c0,0-7.5,0.3-7.5,0.3s-7.5-0.3-7.5-0.3c-0.8,0-1.9,0.4-2.4,1l-5.5,7.7
		c-0.4,0.6-0.4,1.8,0.2,2.4L143.6,223.7z"/>
	<path class="st2" d="M115.9,202.1c2.2,5.1,7.4,10.6,7.4,10.6c1.1,1.3,2.1,1.5,2.8,1.5l8.2-0.2c0.6,0,1.1-0.3,1.4-0.7l5.2-7
		c0.5-0.5,0.7-1.5,0.4-2.4l-1.8-4.7c-0.3-0.8-1.2-1.3-2.1-1.3l-19.3,0C114.9,197.9,114.3,199,115.9,202.1"/>
</g>
<g>
	<defs>
		<rect id="SVGID_19_" x="3.3" y="12.9" width="301.2" height="282"/>
	</defs>
	<clipPath id="SVGID_4_">
		<use xlink:href="#SVGID_19_"  style="overflow:visible;"/>
	</clipPath>
	<path style="clip-path:url(#SVGID_4_);fill:#FFFFFF;" d="M204.9,197.9L204.9,197.9c-0.7,0-8.4,2.2-8.4,2.2
		c-0.7,0.2-1.5,0.8-1.9,1.3c-1.9,3.9-3.9,8.4-9.7,14.3c0,0-0.5,0.5-0.3,1.6c0.2,0.9,1.4,6.2,1.4,6.2c0.1,0.6,0.7,0.7,1.2,0.6
		c-5.1,4.3-11.1,7.6-17.6,9.7c0.9-0.5,0.8-1.4-0.2-2.3l-3.6-3.6c-0.6-0.5-1.3-0.8-2.3-0.6c-3.8,1-7.9,1.2-10,1.2
		c-2.1,0-6.2-0.2-10-1.2c-1-0.2-1.7,0.1-2.3,0.6l-3.6,3.6c-1,0.9-1,1.8-0.2,2.3c-6.5-2.1-12.5-5.4-17.6-9.7c0.5,0.1,1.1,0,1.2-0.6
		c0,0,1.2-5.3,1.4-6.2c0.2-1.1-0.3-1.6-0.3-1.6c-5.8-5.9-7.8-10.4-9.7-14.3c-0.4-0.5-1.2-1-1.9-1.3c0,0-7.7-2.2-8.3-2.2
		c-0.8,0-0.5,0.8-0.5,0.8c6.4,22.6,27.2,39.1,51.8,39.1c24.6,0,45.4-16.5,51.8-39.1C205.4,198.6,205.7,197.9,204.9,197.9"/>
	<path style="clip-path:url(#SVGID_4_);fill:#FFFFFF;" d="M297.1,260.9L161.3,25.7l-7.4-12.8l-7.4,12.8L10.7,260.9l-7.4,12.8h14.8
		h271.6h14.8L297.1,260.9z M153.9,30l38.4,66.5h-76.8L153.9,30z M18.1,265.2l38.4-66.5l38.4,66.5H18.1z M205.3,265.2H102.5l-1.9-3.3
		l-38.4-66.5l-1.9-3.3l51.4-89.1h3.8h76.8h3.8l51.4,89.1l-1.9,3.3l-38.4,66.5L205.3,265.2z M212.9,265.2l38.4-66.5l38.4,66.5H212.9z
		"/>
</g>
<g>
	<defs>
		<rect id="SVGID_21_" width="307.8" height="307.8"/>
	</defs>
	<clipPath id="SVGID_6_">
		<use xlink:href="#SVGID_21_"  style="overflow:visible;"/>
	</clipPath>
	<path style="clip-path:url(#SVGID_6_);fill:#FFFFFF;" d="M109.1,194.8c3.1,0,6.4-0.7,8.1-3.3c0.5-0.7,0.6-1.2,0.8-1.8l-4.9-0.5
		c-0.2,0.4-0.4,0.9-1,1.4c-0.7,0.6-1.8,0.9-2.9,0.9c-2.9,0-4.2-2.2-4.2-4.4c0-3,2.1-4.5,4.4-4.5c0.7,0,1.7,0.2,2.4,0.6
		c0.7,0.5,1,1,1.2,1.4l4.7-0.8c-0.5-1.4-1.6-4.5-8.5-4.5c-8.1,0-9.6,5-9.6,7.7c0,3.9,2.4,6.1,5.3,7.1
		C106.3,194.7,107.7,194.8,109.1,194.8"/>
	<path style="clip-path:url(#SVGID_6_);fill:#FFFFFF;" d="M123.7,192h5.4l0.8,2.3h5.5l-6.2-14.2h-5.8l-6.1,14.2h5.6L123.7,192z
		 M126.4,184l1.7,4.8h-3.3L126.4,184z"/>
	<path style="clip-path:url(#SVGID_6_);fill:#FFFFFF;" d="M140.9,180.1h-4.2v14.2h5v-3c0-1.8,0-2.4-0.1-4.8c0.6,0.8,0.9,1.1,1.6,2
		l5.2,5.9h4.2v-14.2h-5v3.2c0,1.9,0,2.6,0.1,4.6c-1-1.3-1.3-1.6-2.5-3L140.9,180.1z"/>
	<path style="clip-path:url(#SVGID_6_);fill:#FFFFFF;" d="M165.8,192l0.8,2.3h5.5l-6.2-14.2h-5.8l-6.1,14.2h5.6l0.8-2.3H165.8z
		 M163.1,184l1.7,4.8h-3.3L163.1,184z"/>
	<path style="clip-path:url(#SVGID_6_);fill:#FFFFFF;" d="M189,183.4c-2-3.4-6.1-3.4-7.6-3.4h-8.1v14.2h9c1.4,0,2.8-0.1,4.3-0.9
		c1.6-0.8,2.3-2,2.7-2.8c0.4-1,0.6-2.1,0.6-3.2C190,185.2,189.3,184,189,183.4 M183.8,190.2c-0.6,0.5-1.6,0.8-3.3,0.8h-2.2v-7.6h2.4
		c0.9,0,2.2,0.1,3,0.8c0.7,0.6,1.3,1.6,1.3,3C185,188.4,184.5,189.6,183.8,190.2"/>
	<path style="clip-path:url(#SVGID_6_);fill:#FFFFFF;" d="M195.5,180.1l-6.1,14.2h5.6l0.8-2.3h5.4l0.8,2.3h5.5l-6.2-14.2H195.5z
		 M196.8,188.8l1.6-4.8l1.7,4.8H196.8z"/>
	<path style="clip-path:url(#SVGID_6_);fill:#FFFFFF;" d="M103.1,175.8c0.3,0.4,0.9,0.7,1.5,0.7h97.8c0.6,0,1.2-0.3,1.5-0.7l2.1-2.3
		c0.3-0.4,0.2-0.8-0.2-1l-4.7-1.4c-0.5-0.2-0.8-0.7-0.8-1.2l0.4-12.6c0-0.5-0.3-0.9-0.8-0.9l-11-2.3c-0.5,0-1-0.4-1.2-0.9l-1.2-4.3
		c-0.1-0.5-0.6-0.6-1-0.3L169.2,168c-0.4,0.3-0.6,0.2-0.6-0.3l2.7-29.2c0-0.5-0.3-0.8-0.8-0.6l-7.4,4.3c-0.5,0.1-1.1-0.1-1.4-0.5
		l-7.7-12.1c-0.1-0.2-0.3-0.3-0.5-0.3s-0.4,0.1-0.5,0.3l-7.7,12.1c-0.3,0.4-0.9,0.6-1.4,0.5l-7.4-4.3c-0.5-0.1-0.8,0.1-0.8,0.6
		l2.7,29.2c0,0.5-0.2,0.6-0.6,0.3l-16.3-19.2c-0.4-0.3-0.8-0.2-1,0.3l-1.2,4.3c-0.2,0.5-0.7,0.9-1.2,0.9l-11,2.3
		c-0.5,0-0.9,0.4-0.8,0.9l0.4,12.6c0,0.5-0.3,1-0.8,1.2l-4.7,1.4c-0.5,0.2-0.6,0.6-0.2,1L103.1,175.8z"/>
	<path style="clip-path:url(#SVGID_6_);fill:#FFFFFF;" d="M206,177.9c-1.2,0-2.2,0.9-2.2,2.2c0,1.3,1,2.2,2.1,2.2
		c1.2,0,2.2-0.9,2.2-2.1C208.1,178.9,207.2,177.9,206,177.9 M206,182c-1.1,0-2-0.9-2-2c0-1.1,0.9-2,2-2c1.1,0,2,0.9,2,2
		C207.9,181.2,207.1,182,206,182"/>
	<path style="clip-path:url(#SVGID_6_);fill:#FFFFFF;" d="M206.6,180c0.2-0.1,0.5-0.2,0.5-0.6c0-0.3-0.1-0.6-0.5-0.7
		c-0.2-0.1-0.4-0.1-0.7-0.1h-1v2.8h0.7v-1.2h0.1c0.4,0,0.4,0,0.5,0.6c0,0.2,0.1,0.4,0.2,0.6h0.8c-0.1-0.3-0.2-0.5-0.2-0.9
		C206.9,180.2,206.8,180.1,206.6,180 M206.3,179.7c-0.1,0-0.2,0.1-0.4,0.1h-0.3v-0.6h0.2c0.3,0,0.4,0,0.5,0c0.1,0,0.1,0.2,0.1,0.2
		C206.4,179.5,206.4,179.6,206.3,179.7"/>
</g>
<text transform="matrix(1 0 0 1 22.5865 291.4019)" class="st10 st11 st12">DEVEL</text>
<text transform="matrix(1 0 0 1 73.3385 291.4019)" class="st10 st11 st12">OP  </text>
<text transform="matrix(1 0 0 1 124.1251 291.4019)" class="st10 st11 st12">GOVERN  </text>
<text transform="matrix(1 0 0 1 225.6637 291.4019)" class="st10 st11 st12"> GRO</text>
<text transform="matrix(1 0 0 1 262.3531 291.4019)" class="st10 st11 st12">W</text>
</svg>
